<svg id="图层_1" data-name="图层 1" xmlns="http://www.w3.org/2000/svg" viewBox="0 0 173.33 166.67"><path d="M78.19,18H51.53a20,20,0,0,0-20,20h0V68a20,20,0,0,0,20,20H78.19A13.33,13.33,0,0,0,91.53,74.7V31.37A13.34,13.34,0,0,0,78.19,18ZM51.53,31.37H78.19V74.7H51.53A6.67,6.67,0,0,1,44.86,68V38a6.66,6.66,0,0,1,6.67-6.66ZM-41.81,18H-68.47A13.34,13.34,0,0,0-81.81,31.37V74.7A13.33,13.33,0,0,0-68.47,88h26.66a20,20,0,0,0,20-20h0V38a20,20,0,0,0-20-20ZM-68.47,31.37h26.66A6.67,6.67,0,0,1-35.14,38h0V68a6.67,6.67,0,0,1-6.67,6.67H-68.47Z" transform="translate(81.81 78.63)"/><path d="M4.86-78.63A86.91,86.91,0,0,1,91.52,6.61V48a6.67,6.67,0,0,1-13.32.5l0-.5V8A73.57,73.57,0,0,0,4.86-65.3,73.58,73.58,0,0,0-68.46,6.83V48a6.68,6.68,0,0,1-6.64,6.7,6.66,6.66,0,0,1-6.68-6.2l0-.5V8A86.9,86.9,0,0,1,4.86-78.63Z" transform="translate(81.81 78.63)"/></svg>